<?xml version="1.0" standalone="no"?>
<!DOCTYPE svg PUBLIC "-//W3C//DTD SVG 20010904//EN"
 "http://www.w3.org/TR/2001/REC-SVG-20010904/DTD/svg10.dtd">
<svg version="1.0" xmlns="http://www.w3.org/2000/svg"
 width="28pt" height="28pt" viewBox="0 0 512.000000 512.000000"
 preserveAspectRatio="xMidYMid meet">

<g transform="translate(0.000000,512.000000) scale(0.100000,-0.100000)"
fill="#000000" stroke="none">
<path d="M2380 4869 c-153 -40 -293 -128 -391 -244 -44 -53 -419 -691 -419
-713 0 -9 462 -283 500 -296 11 -4 62 77 196 312 199 349 210 362 294 362 87
0 85 3 416 -570 l303 -524 -37 -22 c-20 -12 -81 -47 -134 -78 -98 -57 -118
-77 -118 -115 0 -46 41 -68 490 -251 244 -100 456 -184 471 -187 18 -3 34 2
53 19 26 23 28 30 91 502 36 263 65 491 65 508 0 35 -39 78 -72 78 -13 0 -81
-34 -152 -75 -71 -41 -132 -75 -135 -75 -4 0 -146 241 -316 535 -170 294 -329
559 -354 590 -98 118 -240 206 -395 245 -105 26 -253 26 -356 -1z"/>
<path d="M1160 3104 c-151 -63 -353 -146 -448 -186 -96 -39 -180 -78 -188 -85
-22 -22 -28 -62 -14 -89 8 -14 67 -55 146 -100 128 -73 133 -77 120 -98 -56
-87 -585 -1014 -608 -1062 -160 -341 28 -748 402 -870 49 -16 106 -18 518 -22
l462 -3 0 300 0 301 -408 0 c-410 0 -432 2 -432 35 0 16 587 1029 598 1033 6
2 66 -29 134 -67 134 -77 173 -86 208 -51 11 11 20 33 20 48 0 15 -29 243 -65
507 -58 429 -67 481 -87 502 -14 15 -32 23 -52 22 -17 -1 -155 -52 -306 -115z"/>
<path d="M4315 2009 c-132 -77 -245 -143 -252 -147 -8 -5 44 -105 168 -317 98
-171 179 -315 179 -320 0 -34 -17 -35 -666 -35 l-642 0 -4 158 c-3 169 -8 185
-55 203 -14 5 -33 5 -48 -1 -28 -11 -770 -580 -797 -612 -26 -29 -22 -63 10
-98 15 -16 196 -160 402 -320 384 -297 400 -307 450 -280 30 16 40 67 40 211
l0 138 698 3 c642 3 701 5 752 22 274 90 460 338 460 611 0 78 -23 183 -55
253 -41 90 -379 672 -390 671 -5 0 -118 -63 -250 -140z"/>
</g>
</svg>
