<?xml version="1.0" standalone="no"?>
<!DOCTYPE svg PUBLIC "-//W3C//DTD SVG 20010904//EN"
 "http://www.w3.org/TR/2001/REC-SVG-20010904/DTD/svg10.dtd">
<svg version="1.0" xmlns="http://www.w3.org/2000/svg"
 width="28pt" height="28pt" viewBox="0 0 512.000000 512.000000"
 preserveAspectRatio="xMidYMid meet">

<g transform="translate(0.000000,512.000000) scale(0.100000,-0.100000)"
fill="#000000" stroke="none">
<path d="M1205 4141 c-52 -24 -75 -65 -75 -133 l0 -55 441 1 441 1 -5 59 c-6
68 -27 103 -78 128 -30 16 -69 18 -359 18 -294 0 -329 -2 -365 -19z"/>
<path d="M3250 3811 c-84 -26 -150 -82 -191 -161 l-24 -45 -3 -692 -3 -693
1001 0 1000 0 0 213 c0 145 -4 228 -13 262 -16 58 -535 997 -575 1038 -14 15
-51 40 -82 55 l-55 27 -515 2 c-283 1 -526 -2 -540 -6z m958 -288 c11 -10 129
-211 262 -448 216 -385 240 -434 236 -465 -11 -74 24 -70 -663 -70 l-614 0
-24 25 -25 24 0 451 0 451 25 24 24 25 379 0 c347 0 382 -1 400 -17z"/>
<path d="M3542 3048 l3 -343 473 -3 c259 -1 472 1 472 4 0 4 -84 159 -187 345
l-187 339 -288 0 -288 0 2 -342z"/>
<path d="M1015 3793 c-264 -13 -617 -34 -649 -39 -58 -9 -102 -30 -147 -71
-82 -74 -104 -138 -139 -404 -38 -284 -37 -657 2 -971 l11 -88 1407 0 1408 0
11 93 c32 264 40 563 21 787 -15 173 -50 399 -71 456 -27 72 -79 128 -155 165
-61 30 -73 33 -257 45 -402 27 -622 34 -996 32 -212 -1 -413 -3 -446 -5z"/>
<path d="M49 2041 l-29 -29 0 -276 0 -275 24 -28 c23 -27 28 -28 117 -28 l93
0 12 65 c42 227 200 402 419 465 77 23 213 23 291 0 152 -44 288 -151 357
-282 39 -75 67 -166 67 -221 l0 -33 47 3 48 3 7 47 c10 72 45 169 81 227 187
296 570 364 842 149 109 -86 186 -217 207 -352 l13 -76 447 0 448 0 4 23 c21
108 30 141 57 198 42 88 100 160 173 216 109 82 212 116 352 115 156 -1 278
-54 395 -171 90 -90 134 -172 158 -298 l16 -83 173 0 174 0 29 29 29 29 0 271
c0 286 -3 310 -47 330 -17 8 -706 11 -2499 11 l-2476 0 -29 -29z"/>
<path d="M718 1781 c-74 -24 -115 -50 -171 -110 -231 -247 -95 -643 242 -702
275 -49 521 202 473 481 -36 209 -205 351 -414 349 -41 0 -98 -8 -130 -18z
m187 -182 c54 -14 119 -67 146 -121 42 -83 17 -204 -54 -264 -45 -38 -89 -54
-147 -54 -126 0 -221 96 -221 224 0 93 65 184 152 211 55 17 70 18 124 4z"/>
<path d="M779 1451 c-81 -82 16 -210 120 -157 90 47 53 186 -49 186 -33 0 -48
-6 -71 -29z"/>
<path d="M1948 1781 c-73 -24 -113 -49 -169 -108 -60 -62 -85 -106 -104 -178
-52 -202 43 -406 229 -491 121 -55 249 -53 369 7 308 156 296 604 -21 752 -86
40 -213 48 -304 18z m187 -182 c59 -15 129 -77 150 -134 25 -64 17 -151 -18
-204 -41 -62 -97 -94 -171 -99 -123 -8 -218 68 -240 191 -17 95 57 212 153
241 58 18 71 19 126 5z"/>
<path d="M2009 1451 c-48 -49 -38 -125 21 -156 38 -19 65 -19 100 2 88 52 52
183 -50 183 -33 0 -48 -6 -71 -29z"/>
<path d="M3990 1782 c-96 -32 -186 -105 -238 -192 -63 -107 -69 -266 -14 -384
78 -166 268 -268 442 -238 403 71 488 609 125 788 -66 33 -85 37 -167 40 -71
3 -106 0 -148 -14z m228 -201 c113 -58 154 -188 94 -302 -72 -138 -258 -160
-360 -43 -164 185 46 457 266 345z"/>
<path d="M4047 1455 c-31 -32 -39 -71 -23 -110 17 -40 38 -56 84 -62 76 -10
134 76 98 145 -20 39 -44 52 -94 52 -29 0 -46 -7 -65 -25z"/>
</g>
</svg>
