<?xml version="1.0" standalone="no"?>
<!DOCTYPE svg PUBLIC "-//W3C//DTD SVG 20010904//EN"
 "http://www.w3.org/TR/2001/REC-SVG-20010904/DTD/svg10.dtd">
<svg version="1.0" xmlns="http://www.w3.org/2000/svg"
 width="28pt" height="28pt" viewBox="0 0 512.000000 512.000000"
 preserveAspectRatio="xMidYMid meet">

<g transform="translate(0.000000,512.000000) scale(0.100000,-0.100000)"
fill="#000000" stroke="none">
<path d="M359 4686 l-24 -12 0 -578 0 -578 31 -28 c23 -20 48 -30 85 -35 30
-4 68 -13 84 -20 78 -32 134 -140 120 -228 -20 -117 -100 -187 -215 -187 -72
0 -109 19 -169 88 -53 61 -96 86 -129 76 -93 -30 -119 -108 -63 -195 91 -145
298 -220 476 -174 263 68 399 367 279 614 -40 81 -133 170 -216 206 l-68 29 0
199 0 198 23 -18 c13 -10 78 -62 144 -116 l121 -98 262 -655 c263 -657 269
-673 228 -674 -4 0 -23 -14 -43 -32 -129 -113 -103 -333 48 -404 29 -13 60
-24 70 -24 16 0 17 -10 15 -112 l-3 -113 -690 -2 c-689 -3 -690 -3 -707 -24
-16 -19 -18 -49 -18 -293 0 -320 5 -346 77 -427 49 -54 128 -99 174 -99 24 0
27 5 40 63 17 81 77 199 133 263 62 71 166 138 261 170 246 82 528 -18 669
-238 38 -60 86 -189 86 -232 0 -23 4 -26 33 -26 32 0 33 1 49 70 40 168 159
321 308 394 145 71 317 80 462 26 182 -68 331 -241 369 -428 l13 -62 472 0
472 0 16 71 c47 211 226 390 436 440 124 29 278 10 395 -48 154 -77 276 -234
309 -397 l13 -61 52 -3 c96 -6 203 65 253 167 23 45 23 53 26 468 l3 422 -483
3 -483 3 -50 25 c-64 31 -124 92 -156 155 l-24 50 -3 443 -3 442 -188 0 c-169
0 -190 -2 -204 -18 -15 -17 -17 -78 -17 -670 l0 -652 -425 0 -425 0 0 115 0
114 35 7 c101 19 177 117 178 229 1 105 -43 182 -127 221 -45 21 -65 24 -178
24 l-128 0 0 385 0 386 -22 22 c-27 26 -1995 1371 -2019 1380 -9 3 -27 0 -40
-7z m1090 -1351 l211 -170 0 -323 0 -323 -32 3 -32 3 -186 465 c-102 256 -194
485 -203 509 l-18 43 25 -18 c13 -11 119 -95 235 -189z m991 -1410 l0 -115
-402 2 -403 3 -3 99 c-1 55 0 106 2 113 4 10 83 13 406 13 l400 0 0 -115z
m1682 -55 c66 -19 65 -91 0 -111 -60 -18 -205 -8 -231 15 -37 34 -20 86 34 99
37 9 160 7 197 -3z"/>
<path d="M4042 2717 l3 -435 30 -43 c17 -23 50 -53 74 -66 l44 -23 465 0 464
0 -4 203 c-4 175 -8 211 -27 272 -80 246 -249 415 -496 495 -63 21 -95 24
-313 28 l-243 4 3 -435z"/>
<path d="M708 1367 c-241 -82 -377 -335 -313 -582 61 -234 300 -392 537 -355
263 40 448 286 411 544 -26 184 -160 343 -334 397 -87 27 -214 25 -301 -4z
m268 -245 c83 -42 119 -107 119 -212 0 -105 -36 -169 -120 -213 -57 -30 -165
-30 -222 0 -102 55 -147 175 -111 297 16 54 91 130 144 144 55 15 143 8 190
-16z"/>
<path d="M1955 1376 c-134 -44 -243 -138 -300 -258 -90 -188 -51 -404 97 -552
307 -305 825 -85 821 349 -2 192 -103 348 -283 434 -70 34 -82 36 -185 38 -71
2 -124 -2 -150 -11z m260 -261 c54 -31 90 -82 105 -149 41 -184 -120 -335
-301 -283 -216 63 -214 402 3 458 58 15 144 3 193 -26z"/>
<path d="M4069 1376 c-205 -57 -349 -249 -349 -466 0 -237 159 -428 397 -477
256 -52 518 134 563 399 40 233 -105 469 -331 539 -71 22 -208 24 -280 5z
m249 -255 c118 -60 156 -237 77 -354 -73 -107 -244 -126 -345 -39 -57 48 -80
100 -80 182 0 77 22 130 72 178 67 63 188 78 276 33z"/>
</g>
</svg>
