<?xml version="1.0" standalone="no"?>
<!DOCTYPE svg PUBLIC "-//W3C//DTD SVG 20010904//EN"
 "http://www.w3.org/TR/2001/REC-SVG-20010904/DTD/svg10.dtd">
<svg version="1.0" xmlns="http://www.w3.org/2000/svg"
 width="28pt" height="28pt" viewBox="0 0 512.000000 512.000000"
 preserveAspectRatio="xMidYMid meet">

<g transform="translate(0.000000,512.000000) scale(0.100000,-0.100000)"
fill="#000000" stroke="none">
<path d="M3526 3904 c-14 -14 -16 -88 -16 -665 l0 -649 -1735 0 -1735 0 -21
-21 c-19 -19 -20 -29 -17 -317 l3 -297 27 -50 c44 -84 119 -140 213 -159 l31
-7 17 73 c27 118 70 193 161 283 89 88 168 134 279 160 123 29 279 10 395 -49
153 -78 287 -258 308 -415 6 -49 8 -51 38 -51 31 0 32 2 43 62 7 35 30 99 52
144 139 280 475 399 762 271 163 -73 293 -237 330 -415 l13 -62 472 0 472 0
16 71 c26 117 70 194 161 284 111 111 219 161 371 172 203 14 404 -85 517
-254 46 -70 97 -199 97 -249 l0 -27 63 5 c108 9 196 69 244 166 l28 57 3 417
3 417 -478 3 c-466 3 -479 4 -525 25 -63 29 -134 96 -166 158 l-27 50 -3 443
-3 442 -189 0 c-158 0 -191 -3 -204 -16z m624 -1274 c24 -24 25 -48 4 -78 -14
-20 -23 -22 -127 -22 -128 0 -157 11 -157 60 0 49 29 60 152 60 95 0 110 -2
128 -20z"/>
<path d="M4040 3500 c0 -397 1 -423 19 -459 26 -50 81 -97 128 -110 24 -7 204
-11 486 -11 l447 0 0 170 c0 188 -14 283 -57 385 -80 192 -247 345 -448 412
-77 26 -91 27 -327 31 l-248 4 0 -422z"/>
<path d="M740 2152 c-363 -95 -482 -557 -211 -815 285 -272 752 -112 811 279
37 244 -126 481 -371 539 -82 19 -148 18 -229 -3z m225 -251 c178 -82 171
-367 -10 -437 -69 -26 -172 -17 -227 21 -151 105 -122 364 47 423 49 17 145
14 190 -7z"/>
<path d="M1976 2154 c-117 -28 -243 -120 -302 -220 -89 -152 -87 -361 6 -507
111 -175 329 -263 525 -212 218 57 365 245 365 464 -1 139 -39 237 -132 336
-119 128 -292 180 -462 139z m198 -245 c50 -14 118 -82 134 -135 16 -54 15
-147 -1 -187 -38 -89 -113 -137 -217 -137 -144 0 -232 91 -232 237 -1 102 63
198 147 222 42 13 123 13 169 0z"/>
<path d="M4083 2155 c-79 -22 -150 -61 -209 -117 -106 -100 -154 -210 -154
-353 0 -143 48 -253 154 -353 281 -266 738 -108 807 279 42 235 -120 482 -356
544 -72 18 -172 18 -242 0z m215 -251 c88 -36 136 -115 136 -219 0 -104 -48
-183 -136 -219 -54 -23 -152 -21 -205 5 -175 85 -161 373 22 437 45 16 141 14
183 -4z"/>
</g>
</svg>
