<?xml version="1.0" standalone="no"?>
<!DOCTYPE svg PUBLIC "-//W3C//DTD SVG 20010904//EN"
 "http://www.w3.org/TR/2001/REC-SVG-20010904/DTD/svg10.dtd">
<svg version="1.0" xmlns="http://www.w3.org/2000/svg"
 width="28pt" height="28pt" viewBox="0 0 512.000000 512.000000"
 preserveAspectRatio="xMidYMid meet">

<g transform="translate(0.000000,512.000000) scale(0.100000,-0.100000)"
fill="#000000" stroke="none">
<path d="M1189 4256 c-85 -30 -156 -94 -190 -171 -10 -23 -105 -437 -211 -921
-215 -983 -215 -989 -166 -1096 32 -69 96 -136 160 -166 26 -12 52 -22 56 -22
5 0 12 38 14 85 9 136 65 226 180 287 l43 23 1215 5 1215 5 0 870 0 870 -26
56 c-33 69 -89 127 -155 160 l-49 24 -1025 2 c-821 2 -1032 0 -1061 -11z m540
-470 c27 -15 51 -53 51 -84 0 -9 -46 -213 -102 -452 -91 -388 -105 -438 -129
-462 -53 -54 -158 -23 -173 50 -4 17 30 179 94 452 55 234 103 434 106 444 18
57 93 83 153 52z m584 -10 c14 -13 29 -37 33 -52 5 -19 -22 -154 -90 -443
-115 -490 -110 -475 -143 -501 -54 -42 -151 -10 -167 55 -6 24 179 843 205
908 24 58 115 76 162 33z m563 6 c26 -21 44 -54 44 -81 0 -29 -198 -869 -210
-892 -41 -75 -173 -57 -194 26 -7 28 185 863 210 911 9 18 26 37 37 42 34 16
90 13 113 -6z"/>
<path d="M624 3760 c-22 -5 -57 -15 -77 -23 -44 -19 -123 -90 -144 -131 -9
-17 -102 -260 -207 -541 l-191 -510 0 -430 0 -430 27 -50 c35 -68 92 -122 158
-154 54 -26 58 -26 275 -26 l220 0 68 33 c49 24 79 48 107 84 22 27 40 53 40
58 0 4 -33 15 -72 25 -40 9 -106 33 -147 53 -192 93 -317 316 -298 532 3 36
76 387 161 780 86 393 156 721 156 728 0 13 -15 14 -76 2z"/>
<path d="M3977 3689 c-91 -21 -178 -95 -219 -184 l-23 -50 -5 -662 -5 -663
-28 -27 -27 -28 -1275 -5 -1275 -5 -27 -28 -28 -27 0 -279 0 -278 35 -69 c60
-117 159 -174 304 -174 l71 0 1 118 c1 98 5 130 27 198 65 198 225 359 429
432 64 23 89 26 208 26 116 1 145 -2 205 -22 113 -38 193 -88 280 -176 133
-134 195 -285 195 -478 l0 -98 354 0 354 0 -5 73 c-15 195 85 420 244 551 295
244 734 195 968 -108 92 -120 137 -252 138 -408 1 -65 5 -98 12 -98 6 0 34 12
62 26 61 30 117 88 147 153 20 44 21 61 24 466 l2 420 -199 619 c-143 443
-207 630 -227 659 -16 22 -50 55 -75 73 -75 55 -133 64 -384 63 -121 -1 -237
-5 -258 -10z m520 -225 c25 -19 43 -67 155 -415 70 -217 128 -397 128 -401 0
-5 -189 -8 -420 -8 l-420 0 0 376 c0 440 -1 436 90 468 8 3 110 4 227 3 198
-2 213 -3 240 -23z"/>
<path d="M2037 1769 c-119 -28 -258 -140 -309 -249 -85 -183 -56 -375 79 -521
119 -128 289 -178 458 -133 78 20 138 54 203 118 261 252 144 687 -211 782
-58 15 -162 17 -220 3z"/>
<path d="M4083 1765 c-231 -62 -381 -289 -344 -519 44 -274 310 -450 576 -381
136 36 241 124 303 252 36 77 37 80 37 198 0 117 -1 122 -36 196 -98 204 -324
311 -536 254z"/>
</g>
</svg>
