<?xml version="1.0" standalone="no"?>
<!DOCTYPE svg PUBLIC "-//W3C//DTD SVG 20010904//EN"
 "http://www.w3.org/TR/2001/REC-SVG-20010904/DTD/svg10.dtd">
<svg version="1.0" xmlns="http://www.w3.org/2000/svg"
 width="28pt" height="28pt" viewBox="0 0 512.000000 512.000000"
 preserveAspectRatio="xMidYMid meet">

<g transform="translate(0.000000,512.000000) scale(0.100000,-0.100000)"
fill="#000000" stroke="none">
<path d="M1260 4773 c-25 -8 -65 -30 -90 -47 l-45 -31 -220 -5 c-248 -6 -278
-13 -350 -85 -54 -55 -75 -107 -75 -190 0 -135 81 -237 213 -269 l27 -6 0
-405 0 -405 -75 0 c-87 0 -127 -16 -149 -59 -9 -16 -49 -123 -91 -239 -78
-217 -88 -269 -59 -310 20 -29 247 -181 288 -193 68 -20 146 39 146 109 0 56
-30 94 -114 147 -42 27 -76 51 -76 54 0 3 20 60 44 126 l43 120 164 3 164 2
43 -119 c23 -65 42 -123 42 -129 0 -5 -36 -33 -79 -61 -55 -37 -84 -63 -96
-88 -43 -90 39 -187 137 -162 44 12 273 167 291 199 9 15 17 39 17 53 0 14
-36 128 -81 254 -102 287 -106 293 -234 293 l-85 0 0 405 0 405 72 0 73 0 595
-594 c465 -465 606 -600 646 -620 171 -85 376 -31 492 129 l21 30 1 -312 0
-313 -340 0 -340 0 0 168 c-1 185 -8 233 -41 268 -37 39 -82 49 -126 27 -73
-36 -78 -50 -81 -269 l-4 -194 -80 0 c-78 0 -81 -1 -114 -34 l-34 -34 0 -221
0 -221 -642 0 c-691 0 -672 1 -712 -53 -21 -28 -21 -39 -24 -501 -3 -524 -2
-533 57 -573 31 -21 45 -23 178 -23 156 0 186 8 217 54 20 32 21 88 0 127 -20
40 -68 59 -149 59 l-65 0 0 335 0 335 1335 0 c1470 0 1385 -4 1425 62 19 31
20 50 20 311 0 307 -4 333 -59 361 -19 10 -57 16 -106 16 l-75 0 0 421 c0 379
-2 424 -17 450 -23 39 -70 59 -140 59 l-58 0 -29 58 c-24 47 -136 163 -640
668 -696 697 -659 666 -820 671 -64 2 -104 -2 -136 -14z m183 -239 c18 -9 233
-217 479 -462 l446 -445 -57 -37 c-56 -36 -104 -88 -132 -142 l-14 -28 -459
459 c-452 452 -458 459 -463 504 -7 60 1 88 34 122 48 48 108 58 166 29z
m-445 -121 l3 -33 -135 0 c-123 0 -136 2 -146 19 -7 15 -6 23 6 36 13 13 37
15 143 13 l126 -3 3 -32z m1590 -1023 c50 -31 74 -76 69 -132 -5 -62 -29 -96
-84 -120 -57 -25 -101 -18 -148 23 -77 68 -68 177 18 229 41 26 103 25 145 0z
m-458 -1305 l0 -135 -95 0 -95 0 0 135 0 135 95 0 95 0 0 -135z m530 0 l0
-135 -145 0 -145 0 0 135 0 135 145 0 145 0 0 -135z m440 0 l0 -135 -100 0
-100 0 0 135 0 135 100 0 100 0 0 -135z"/>
<path d="M1355 4468 c-51 -29 -60 -84 -20 -123 46 -47 118 -23 131 42 5 27 1
37 -24 63 -32 32 -55 37 -87 18z"/>
<path d="M2485 3338 c-51 -27 -60 -84 -20 -123 39 -40 96 -32 120 16 21 40 19
57 -14 90 -31 31 -53 35 -86 17z"/>
<path d="M3684 2930 c-16 -5 -41 -21 -55 -36 l-24 -26 -3 -539 c-2 -470 -1
-543 13 -569 20 -39 46 -54 129 -74 326 -79 569 -370 601 -721 14 -150 35
-165 228 -165 123 0 137 2 168 23 61 41 60 28 56 812 -4 781 -2 761 -67 899
-88 186 -264 332 -462 382 -74 19 -532 30 -584 14z m480 -240 c203 -30 359
-190 386 -397 7 -47 10 -282 8 -598 l-3 -520 -24 70 c-50 147 -124 268 -235
383 -117 121 -257 213 -400 261 l-51 18 -3 396 -2 397 127 0 c71 0 159 -5 197
-10z"/>
<path d="M1430 1484 c-81 -21 -188 -77 -246 -128 -152 -134 -231 -364 -190
-556 72 -337 395 -543 720 -460 114 29 190 73 276 160 78 78 127 160 152 253
l12 47 259 0 c289 0 302 3 333 68 22 47 12 98 -26 137 l-30 30 -270 3 -269 3
-21 64 c-60 180 -232 335 -421 380 -80 18 -206 18 -279 -1z m291 -257 c122
-59 191 -165 197 -302 5 -104 -20 -174 -88 -248 -72 -79 -149 -112 -260 -112
-94 1 -151 20 -220 75 -83 66 -137 196 -126 303 14 137 90 237 223 293 80 34
195 30 274 -9z"/>
<path d="M1474 1020 c-28 -11 -61 -54 -69 -89 -9 -41 18 -97 57 -121 43 -26
163 -28 214 -4 83 39 85 167 4 209 -32 16 -169 20 -206 5z"/>
<path d="M3406 1484 c-108 -26 -184 -70 -272 -158 -122 -122 -174 -246 -174
-414 0 -165 54 -296 170 -412 189 -191 453 -233 690 -110 203 106 334 337 316
558 -16 203 -131 382 -307 481 -115 64 -290 87 -423 55z m302 -264 c75 -39
125 -93 160 -169 22 -47 27 -70 27 -141 0 -103 -29 -174 -97 -243 -222 -222
-598 -69 -598 243 0 207 157 356 365 347 68 -3 90 -8 143 -37z"/>
<path d="M3438 1015 c-55 -31 -74 -110 -41 -166 25 -42 69 -59 155 -59 88 0
131 22 155 77 19 46 6 97 -33 134 -23 21 -36 24 -117 27 -68 2 -99 -2 -119
-13z"/>
</g>
</svg>
