<?xml version="1.0" standalone="no"?>
<!DOCTYPE svg PUBLIC "-//W3C//DTD SVG 20010904//EN"
 "http://www.w3.org/TR/2001/REC-SVG-20010904/DTD/svg10.dtd">
<svg version="1.0" xmlns="http://www.w3.org/2000/svg"
 width="28pt" height="28pt" viewBox="0 0 512.000000 512.000000"
 preserveAspectRatio="xMidYMid meet">

<g transform="translate(0.000000,512.000000) scale(0.100000,-0.100000)"
fill="#000000" stroke="none">
<path d="M209 4337 c-39 -30 -39 -13 -39 -1357 l0 -1302 29 -29 29 -29 317 0
316 0 47 40 c55 46 175 103 250 119 169 35 364 -12 494 -120 l47 -39 770 0
771 0 0 1340 0 1341 -25 24 -24 25 -1483 0 c-1150 -1 -1487 -3 -1499 -13z
m1760 -440 c74 -49 81 -76 81 -339 l0 -228 228 0 c263 0 290 -7 339 -81 27
-41 28 -46 31 -210 6 -259 -6 -312 -87 -366 -33 -22 -41 -23 -272 -23 l-239 0
0 -222 c0 -123 -5 -239 -10 -260 -13 -45 -77 -105 -122 -113 -18 -3 -126 -5
-240 -3 -226 3 -232 5 -282 72 -20 25 -21 45 -26 274 l-5 247 -247 5 c-271 5
-271 6 -322 74 -19 25 -21 43 -24 244 -2 119 -1 227 3 239 9 38 74 102 113
113 21 5 137 10 260 10 l222 0 0 239 c0 230 1 239 23 271 28 42 65 70 108 80
19 5 122 8 230 7 l195 -2 43 -28z"/>
<path d="M1538 3481 l-3 -269 -24 -26 -24 -26 -274 0 -273 0 0 -170 0 -170
254 0 c163 0 265 -4 286 -11 55 -20 60 -46 60 -334 l0 -255 170 0 170 0 0 273
0 274 26 24 26 24 269 3 269 3 0 169 0 170 -270 0 -271 0 -24 25 -25 24 0 271
0 270 -170 0 -169 0 -3 -269z"/>
<path d="M3410 2645 l0 -1025 132 0 131 0 51 39 c126 97 256 138 410 128 132
-8 239 -50 343 -133 l41 -34 171 0 171 0 0 470 0 469 -502 3 c-494 3 -504 3
-544 25 -50 27 -97 75 -121 122 -16 33 -18 77 -21 499 l-3 462 -129 0 -130 0
0 -1025z"/>
<path d="M3840 3229 l0 -441 29 -29 29 -29 446 0 c245 0 446 3 446 6 0 6 -502
823 -533 868 -38 54 -84 66 -259 66 l-158 0 0 -441z"/>
<path d="M1176 1610 c-66 -17 -153 -70 -206 -126 -200 -212 -131 -550 137
-677 63 -30 76 -32 173 -32 97 0 110 2 173 32 185 88 284 280 243 472 -28 132
-110 237 -232 297 -64 32 -84 37 -161 40 -48 2 -105 -1 -127 -6z"/>
<path d="M3980 1604 c-193 -52 -322 -237 -307 -439 23 -309 348 -488 626 -345
68 34 147 120 184 197 30 64 32 75 32 178 0 103 -2 114 -32 175 -40 81 -88
138 -153 180 -102 66 -232 86 -350 54z"/>
<path d="M340 1361 c0 -49 4 -101 10 -116 16 -42 63 -55 203 -55 l125 0 11 75
c6 41 20 100 30 130 l19 55 -199 0 -199 0 0 -89z"/>
<path d="M1841 1395 c10 -30 24 -89 30 -130 l11 -75 807 2 806 3 8 64 c4 35
17 90 27 122 11 32 20 61 20 64 0 3 -389 5 -864 5 l-864 0 19 -55z"/>
<path d="M4642 1438 c25 -67 40 -127 46 -180 l7 -63 70 -3 c92 -4 132 4 161
33 22 22 24 32 24 125 l0 100 -156 0 c-121 0 -155 -3 -152 -12z"/>
</g>
</svg>
