<?xml version="1.0" standalone="no"?>
<!DOCTYPE svg PUBLIC "-//W3C//DTD SVG 20010904//EN"
 "http://www.w3.org/TR/2001/REC-SVG-20010904/DTD/svg10.dtd">
<svg version="1.0" xmlns="http://www.w3.org/2000/svg"
 width="28pt" height="28pt" viewBox="0 0 512.000000 512.000000"
 preserveAspectRatio="xMidYMid meet">

<g transform="translate(0.000000,512.000000) scale(0.100000,-0.100000)"
fill="#000000" stroke="none">
<path d="M2900 3743 l1 -98 53 -32 54 -33 710 0 c469 0 713 3 717 10 12 20
-25 116 -61 158 -20 24 -55 53 -78 65 l-41 22 -677 3 -678 3 0 -98z"/>
<path d="M286 3490 c-37 -12 -85 -56 -102 -97 -11 -25 -14 -102 -14 -348 l0
-315 1441 0 1441 0 -6 28 c-3 15 -28 158 -56 317 -28 160 -55 302 -61 316 -13
34 -66 85 -102 98 -35 13 -2497 14 -2541 1z"/>
<path d="M3196 2888 c51 -288 96 -538 99 -555 l6 -33 565 0 c607 0 618 1 645
51 9 17 10 64 5 179 -13 317 -74 600 -175 813 l-32 67 -603 0 -602 0 92 -522z"/>
<path d="M170 2298 c0 -375 -16 -354 351 -463 l227 -67 43 47 c90 97 195 145
319 145 184 0 354 -124 405 -295 l12 -40 477 0 478 0 18 52 c37 107 119 195
229 247 60 28 75 31 161 31 52 0 109 -4 127 -8 l32 -8 42 83 c63 126 63 121
29 318 -17 96 -32 185 -35 198 l-5 22 -1455 0 -1455 0 0 -262z"/>
<path d="M3586 2121 c31 -28 502 -401 507 -401 3 0 7 30 10 68 2 37 6 75 8 84
3 13 -39 52 -146 138 l-150 120 -119 0 c-68 0 -116 -4 -110 -9z"/>
<path d="M3310 2102 c0 -10 -25 -69 -55 -131 -30 -62 -55 -118 -55 -125 0 -7
11 -22 23 -34 23 -22 29 -22 261 -20 l238 3 -188 150 c-239 191 -224 181 -224
157z"/>
<path d="M1005 1766 c-59 -27 -117 -88 -136 -142 -17 -51 -16 -140 3 -185 85
-200 366 -211 464 -17 29 58 34 154 11 210 -55 131 -215 194 -342 134z"/>
<path d="M2795 1766 c-93 -43 -145 -125 -145 -230 0 -238 289 -345 444 -164
35 40 66 117 66 163 0 60 -33 131 -83 180 -81 79 -184 97 -282 51z"/>
<path d="M4270 1705 l0 -85 255 0 255 0 0 51 c0 52 -12 85 -39 106 -12 9 -80
12 -243 13 l-228 0 0 -85z"/>
<path d="M4185 1398 c-21 -29 -49 -68 -63 -85 l-24 -33 426 0 426 0 -62 85
-63 84 -300 1 -301 0 -39 -52z"/>
</g>
</svg>
