<?xml version="1.0" standalone="no"?>
<!DOCTYPE svg PUBLIC "-//W3C//DTD SVG 20010904//EN"
 "http://www.w3.org/TR/2001/REC-SVG-20010904/DTD/svg10.dtd">
<svg version="1.0" xmlns="http://www.w3.org/2000/svg"
 width="28pt" height="28pt" viewBox="0 0 512.000000 512.000000"
 preserveAspectRatio="xMidYMid meet">

<g transform="translate(0.000000,512.000000) scale(0.100000,-0.100000)"
fill="#000000" stroke="none">
<path d="M2835 3766 c-16 -7 -67 -48 -113 -90 -45 -42 -83 -77 -85 -78 -1 -1
-342 -5 -757 -8 -743 -5 -756 -5 -800 -26 -25 -12 -59 -37 -76 -55 -18 -19
-177 -263 -355 -544 -224 -354 -327 -525 -336 -560 -10 -37 -13 -116 -11 -305
3 -242 4 -257 25 -297 13 -23 39 -54 60 -70 l36 -28 227 -3 227 -3 6 62 c7 83
60 190 128 258 93 92 252 151 368 136 179 -25 336 -145 387 -297 l16 -50 22
54 c47 114 123 197 231 248 251 120 553 -14 636 -281 10 -33 19 -76 19 -95 l0
-34 419 0 419 0 11 68 c51 303 370 471 649 342 71 -33 162 -114 199 -178 31
-53 63 -153 63 -198 l0 -34 124 0 c111 0 126 2 156 23 85 57 94 107 87 452 -5
223 -8 268 -24 310 -16 40 -419 689 -527 847 -50 74 -41 73 -513 76 -372 2
-426 1 -453 -13 -60 -31 -60 -33 -60 -597 0 -573 2 -558 -66 -558 -21 0 -42 8
-54 20 -20 20 -21 29 -18 578 l3 557 25 43 c43 75 72 86 243 92 185 6 187 8
187 136 0 121 24 114 -370 114 -248 -1 -332 -4 -355 -14z m-1574 -595 l24 -19
3 -301 3 -302 -30 -29 c-36 -37 -73 -39 -106 -5 l-25 24 0 302 c0 297 0 303
22 326 27 29 77 30 109 4z m658 -7 c20 -26 21 -38 21 -326 l0 -299 -25 -24
c-26 -27 -70 -32 -96 -12 -36 28 -39 51 -39 347 l0 291 25 24 c34 35 86 34
114 -1z m650 7 c30 -30 32 -63 29 -359 l-3 -274 -28 -24 c-36 -30 -68 -30
-104 0 l-28 24 -3 264 c-4 290 0 340 29 369 25 25 83 25 108 0z m1510 -48 c46
-44 291 -459 291 -493 0 -36 -24 -60 -58 -59 -15 0 -171 37 -347 82 -292 75
-321 84 -332 107 -16 32 -18 304 -2 348 6 17 18 33 27 35 9 3 101 5 204 6
l188 1 29 -27z m501 -699 c42 -36 60 -74 60 -129 0 -38 -5 -52 -29 -76 -77
-76 -205 2 -205 124 0 43 4 53 32 78 43 39 98 40 142 3z"/>
<path d="M1254 2041 c-59 -15 -120 -51 -167 -97 -176 -177 -120 -465 111 -572
47 -22 72 -26 137 -27 69 0 89 5 145 31 78 37 141 99 178 174 22 47 26 68 27
145 0 77 -4 98 -27 147 -33 72 -103 142 -174 175 -59 27 -174 39 -230 24z
m147 -234 c73 -49 87 -132 33 -197 -66 -78 -197 -49 -224 50 -17 62 7 116 65
152 40 24 85 23 126 -5z"/>
<path d="M2129 2034 c-278 -85 -337 -458 -99 -626 215 -150 507 -25 550 236
41 251 -207 466 -451 390z m155 -218 c49 -20 76 -61 76 -113 0 -83 -49 -136
-126 -136 -50 0 -87 22 -114 66 -38 61 -14 144 51 179 40 22 68 23 113 4z"/>
<path d="M3883 2031 c-138 -47 -229 -163 -241 -306 -6 -83 12 -154 59 -223 69
-105 172 -158 301 -156 65 1 87 6 142 33 182 89 252 300 160 482 -73 146 -266
224 -421 170z m182 -225 c37 -24 56 -60 57 -103 1 -79 -53 -136 -128 -136 -50
0 -87 22 -114 66 -71 115 71 247 185 173z"/>
</g>
</svg>
