<?xml version="1.0" standalone="no"?>
<!DOCTYPE svg PUBLIC "-//W3C//DTD SVG 20010904//EN"
 "http://www.w3.org/TR/2001/REC-SVG-20010904/DTD/svg10.dtd">
<svg version="1.0" xmlns="http://www.w3.org/2000/svg"
 width="28pt" height="28pt" viewBox="0 0 512.000000 512.000000"
 preserveAspectRatio="xMidYMid meet">

<g transform="translate(0.000000,512.000000) scale(0.100000,-0.100000)"
fill="#000000" stroke="none">
<path d="M2965 4166 c-43 -19 -90 -61 -117 -104 -21 -34 -23 -51 -28 -222 l-5
-185 -1364 -3 c-1252 -2 -1366 -3 -1383 -19 -17 -15 -18 -44 -18 -487 l0 -471
177 -177 178 -178 -186 0 c-170 0 -187 -2 -203 -19 -15 -17 -17 -47 -14 -312
3 -282 4 -296 26 -340 42 -85 126 -151 209 -165 l38 -6 17 71 c27 114 73 196
158 281 121 122 244 173 415 173 159 0 280 -50 401 -165 86 -82 147 -189 167
-296 11 -60 13 -62 42 -62 29 0 31 2 42 61 38 202 209 383 419 445 84 24 238
22 324 -5 196 -62 349 -227 398 -428 l17 -73 471 0 472 0 16 71 c22 100 69
188 138 264 226 246 608 254 844 18 74 -74 138 -194 157 -292 l12 -63 60 4
c106 9 195 69 246 168 24 45 24 46 27 467 l3 422 -483 3 -483 3 -50 25 c-64
31 -124 92 -156 155 l-24 50 -3 443 -3 442 -188 0 c-169 0 -190 -2 -204 -18
-15 -17 -17 -81 -19 -668 l-3 -649 -102 -3 -103 -3 0 741 0 740 110 0 c118 0
164 12 208 53 88 82 70 246 -33 304 -39 22 -48 23 -315 22 -204 0 -283 -3
-305 -13z m-2128 -906 c10 -19 13 -105 11 -368 -3 -327 -4 -344 -22 -358 -26
-18 -61 -18 -80 2 -14 13 -16 61 -16 373 0 272 3 360 12 369 22 22 81 10 95
-18z m633 11 c6 -13 10 -147 10 -367 0 -382 0 -384 -61 -384 -58 0 -59 9 -59
389 0 306 2 346 17 363 22 25 79 24 93 -1z m628 7 c9 -9 12 -105 12 -369 0
-388 0 -389 -55 -389 -31 0 -53 23 -60 63 -3 18 -5 176 -3 353 2 254 6 324 17
337 16 20 72 22 89 5z m636 -4 c14 -13 16 -61 16 -366 0 -387 0 -388 -61 -388
-58 0 -59 9 -59 392 0 381 0 378 60 378 16 0 36 -7 44 -16z m1416 -904 c25
-25 25 -51 3 -79 -16 -20 -29 -22 -130 -23 -97 -1 -115 1 -133 17 -29 26 -23
75 10 92 15 8 65 13 128 13 89 0 105 -3 122 -20z"/>
<path d="M4042 3227 l3 -435 30 -43 c17 -23 50 -53 74 -66 l44 -23 465 0 464
0 -4 203 c-4 173 -8 212 -28 272 -65 205 -201 364 -385 451 -126 60 -166 67
-428 72 l-238 4 3 -435z"/>
<path d="M775 1900 c-165 -33 -304 -150 -367 -309 -32 -82 -32 -261 1 -344 52
-132 174 -246 307 -287 73 -22 189 -26 263 -9 108 24 228 110 290 207 181 283
21 668 -308 738 -72 15 -124 16 -186 4z m210 -275 c151 -88 146 -340 -8 -414
-131 -63 -280 -13 -332 111 -21 52 -19 153 4 203 57 123 216 171 336 100z"/>
<path d="M1995 1898 c-163 -31 -316 -169 -367 -331 -22 -72 -26 -200 -8 -267
57 -213 249 -360 469 -360 170 0 314 77 403 214 126 196 100 446 -66 612 -116
115 -270 163 -431 132z m158 -247 c101 -24 167 -115 167 -230 -1 -120 -66
-208 -174 -232 -155 -34 -289 72 -289 231 0 162 136 268 296 231z"/>
<path d="M4130 1903 c-148 -25 -293 -130 -358 -258 -59 -118 -68 -280 -23
-398 130 -334 573 -415 814 -148 170 190 164 471 -13 655 -34 35 -88 78 -120
95 -89 47 -210 69 -300 54z m188 -272 c118 -60 156 -237 77 -354 -76 -111
-263 -127 -357 -30 -49 51 -68 99 -68 175 1 147 105 244 251 234 30 -2 74 -13
97 -25z"/>
</g>
</svg>
